<?xml version="1.0" encoding="UTF-8"?>
<svg width="92px" height="84px" viewBox="0 0 92 84" version="1.1" xmlns="http://www.w3.org/2000/svg" xmlns:xlink="http://www.w3.org/1999/xlink">
    <!-- Generator: Sketch 49 (51002) - http://www.bohemiancoding.com/sketch -->
    <title>icon2</title>
    <desc>Created with Sketch.</desc>
    <defs></defs>
    <g id="Page-1" stroke="none" stroke-width="1" fill="none" fill-rule="evenodd">
        <g id="icon2" fill="#00E1EC">
            <polygon id="Path-4" points="75.2617639 0.532846488 75.2617639 33.6804423 91.4451137 17.7472595 91.4451137 16.2667229"></polygon>
            <polygon id="Path-4" transform="translate(8.353439, 67.106644) scale(-1, 1) translate(-8.353439, -67.106644) " points="0.261763945 50.5328465 0.261763945 83.6804423 16.4451137 67.7472595 16.4451137 66.2667229"></polygon>
            <path d="M25.5213974,63.3188225 L54.2803899,63.3188225 C56.4895289,63.3188225 58.2803899,61.5279615 58.2803899,59.3188225 L58.2803899,50.6312248 C58.2803899,48.4220858 56.4895289,46.6312248 54.2803899,46.6312248 L37.5511929,46.6312248 C30.9237759,46.6312248 25.5511929,41.2586418 25.5511929,34.6312248 L25.5511929,23.0485053 C25.5511929,17.5256578 30.0283454,13.0485053 35.5511929,13.0485053 L41.8097461,13.0485053 L41.8097461,4.56377526 L50.3369778,4.56377526 L50.3369778,13.0485053 L66.598201,13.0485053 L66.598201,21.0762634 L37.3726037,21.0762634 C35.1634647,21.0762634 33.3726037,22.8671244 33.3726037,25.0762634 L33.3726037,34.0358679 C33.3726037,36.2450069 35.1634647,38.0358679 37.3726037,38.0358679 L54.8023703,38.0358679 C61.4297873,38.0358679 66.8023703,43.4084509 66.8023703,50.0358679 L66.8023703,59.3307518 C66.8023703,65.9581688 61.4297873,71.3307518 54.8023703,71.3307518 L50.240045,71.3307518 L50.240045,79.6289194 L41.785709,79.6289194 L41.8097461,71.3307518 L25.57523,71.3307518 L25.5213974,63.3188225 Z" id="Path-5"></path>
        </g>
    </g>
</svg>