<?xml version="1.0" encoding="UTF-8"?>
<svg width="102px" height="68px" viewBox="0 0 102 68" version="1.1" xmlns="http://www.w3.org/2000/svg" xmlns:xlink="http://www.w3.org/1999/xlink">
    <!-- Generator: Sketch 49 (51002) - http://www.bohemiancoding.com/sketch -->
    <title>icon3</title>
    <desc>Created with Sketch.</desc>
    <defs></defs>
    <g id="Page-1" stroke="none" stroke-width="1" fill="none" fill-rule="evenodd">
        <g id="icon3" fill="#00E1EC">
            <path d="M12.3143698,11.9564504 L6.53509167,57.5662152 C6.31742413,59.2087093 7.47247427,60.7166683 9.11496836,60.9343358 C9.24562853,60.9516512 9.37728779,60.9603372 9.50909031,60.9603372 L21.8480478,60.9603372 C26.8186105,60.9603372 30.8480478,56.9308999 30.8480478,51.9603372 L30.8480478,50.8801253 C30.8480478,49.2232711 32.1911935,47.8801253 33.8480478,47.8801253 L68.0629625,47.8801253 C69.7198167,47.8801253 71.0629625,49.2232711 71.0629625,50.8801253 L71.0629625,52.4369634 C71.0629625,57.4075261 75.0923997,61.4369634 80.0629625,61.4369634 L92.8840301,61.4369634 C94.5408843,61.4369634 95.8840301,60.0938176 95.8840301,58.4369634 C95.8840301,58.3012481 95.8748208,58.1656891 95.8564656,58.0312208 L89.840183,11.9564504 L67.3660435,8.10502321 C56.668371,6.27174692 45.7372706,6.26584732 35.0376254,8.08757531 L12.3143698,11.9564504 Z M36.7263436,53.8801253 C35.783825,61.2577636 29.4818901,66.9603372 21.8480478,66.9603372 L9.50909031,66.9603372 C9.11368276,66.9603372 8.71870498,66.9342793 8.32672447,66.8823331 C3.39924219,66.2293304 -0.0659082221,61.7054536 0.587094396,56.7779713 L6.94739338,6.78389033 L34.0305544,2.1726951 C45.3989273,0.237109106 57.0132215,0.243377431 68.3794986,2.19123349 L95.1900194,6.78579295 L101.801337,57.2197356 C101.856402,57.6231406 101.88403,58.0298174 101.88403,58.4369634 C101.88403,63.4075261 97.8545928,67.4369634 92.8840301,67.4369634 L80.0629625,67.4369634 C72.2655099,67.4369634 65.8576681,61.4873327 65.1314909,53.8801253 L36.7263436,53.8801253 Z" id="Path-6" fill-rule="nonzero"></path>
            <rect id="Rectangle-14" x="26" y="18" width="7" height="22"></rect>
            <rect id="Rectangle-14" transform="translate(29.500000, 29.000000) rotate(-270.000000) translate(-29.500000, -29.000000) " x="26" y="18" width="7" height="22"></rect>
            <circle id="Oval-2" cx="65" cy="29" r="4"></circle>
            <circle id="Oval-2" cx="80" cy="29" r="4"></circle>
            <circle id="Oval-2" cx="73" cy="22" r="4"></circle>
            <circle id="Oval-2" cx="73" cy="36" r="4"></circle>
        </g>
    </g>
</svg>