<svg width="83px" height="88px" viewBox="0 0 83 88" version="1.1" xmlns="http://www.w3.org/2000/svg" xmlns:xlink="http://www.w3.org/1999/xlink">
    <!-- Generator: Sketch 49 (51002) - http://www.bohemiancoding.com/sketch -->
    <title>2</title>
    <desc>Created with Sketch.</desc>
    <defs></defs>
    <g id="Page-1" stroke="none" stroke-width="1" fill="none" fill-rule="evenodd">
        <g id="iPhone-8-Plus" transform="translate(-165.000000, -368.000000)" fill="#000000">
            <g id="2" transform="translate(165.000000, 368.000000)">
                <rect id="Rectangle-16" x="76" y="0" width="7" height="33"></rect>
                <rect id="Rectangle-16" x="76" y="40" width="7" height="7"></rect>
                <path d="M33,61.5 C21.1258779,61.5 11.5,51.8741221 11.5,40 C11.5,28.1258779 21.1258779,18.5 33,18.5 C44.8741221,18.5 54.5,28.1258779 54.5,40 C54.5,51.8741221 44.8741221,61.5 33,61.5 Z M33,54.5 C41.0081289,54.5 47.5,48.0081289 47.5,40 C47.5,31.9918711 41.0081289,25.5 33,25.5 C24.9918711,25.5 18.5,31.9918711 18.5,40 C18.5,48.0081289 24.9918711,54.5 33,54.5 Z" id="Oval-4" fill-rule="nonzero"></path>
                <path d="M7.37102553,87.1570002 L0.31058495,87.1570002 C0.365882235,86.8337255 0.583664576,85.3326344 0.642621015,85.0141973 C4.3034189,65.2413991 15.0139551,54.802814 32.2361514,54.7388999 C49.5547148,54.6746282 60.2335183,65.1540298 63.7037212,85.0935369 C63.7439905,85.3249211 63.9294879,86.689365 63.9678149,86.9232953 L56.9137176,86.9232953 C54.0932569,69.7085047 46.0723522,61.6876 32.2621292,61.7388517 C18.4319292,61.7901776 10.32306,69.8990467 7.37102553,87.1570002 Z" id="Path-8" fill-rule="nonzero"></path>
            </g>
        </g>
    </g>
</svg>