<?xml version="1.0" encoding="UTF-8"?>
<svg width="87px" height="91px" viewBox="0 0 87 91" version="1.1" xmlns="http://www.w3.org/2000/svg" xmlns:xlink="http://www.w3.org/1999/xlink">
    <!-- Generator: Sketch 49 (51002) - http://www.bohemiancoding.com/sketch -->
    <title>1</title>
    <desc>Created with Sketch.</desc>
    <defs></defs>
    <g id="Page-1" stroke="none" stroke-width="1" fill="none" fill-rule="evenodd">
        <g id="iPhone-8-Plus" transform="translate(-164.000000, -117.000000)">
            <g id="1" transform="translate(164.000000, 119.000000)">
                <g id="Group-15" transform="translate(0.000000, 1.000000)">
                    <path d="M12,23.5 C5.64872538,23.5 0.5,18.3512746 0.5,12 C0.5,5.64872538 5.64872538,0.5 12,0.5 C18.3512746,0.5 23.5,5.64872538 23.5,12 C23.5,18.3512746 18.3512746,23.5 12,23.5 Z M12,16.5 C14.4852814,16.5 16.5,14.4852814 16.5,12 C16.5,9.51471863 14.4852814,7.5 12,7.5 C9.51471863,7.5 7.5,9.51471863 7.5,12 C7.5,14.4852814 9.51471863,16.5 12,16.5 Z" id="Oval-5" fill="#979797" fill-rule="nonzero"></path>
                    <path d="M12.4308464,20.5270865 L12.4308464,57.8872771 C12.4308464,66.7238331 19.5942904,73.8872771 28.4308464,73.8872771 L40.5639359,73.8872771" id="Path-9" stroke="#979797" stroke-width="7"></path>
                    <path d="M44.2,70.4 L44.2,77.6 L49,74 L44.2,70.4 Z M40,86 L40,62 L56,74 L40,86 Z" id="Path-10" stroke="#979797" stroke-width="2" fill="#979797" fill-rule="nonzero"></path>
                </g>
                <g id="Group-15" transform="translate(59.000000, 43.000000) scale(-1, -1) translate(-59.000000, -43.000000) translate(31.000000, 0.000000)" fill="#979797" fill-rule="nonzero">
                    <path d="M12,23.5 C5.64872538,23.5 0.5,18.3512746 0.5,12 C0.5,5.64872538 5.64872538,0.5 12,0.5 C18.3512746,0.5 23.5,5.64872538 23.5,12 C23.5,18.3512746 18.3512746,23.5 12,23.5 Z M12,16.5 C14.4852814,16.5 16.5,14.4852814 16.5,12 C16.5,9.51471863 14.4852814,7.5 12,7.5 C9.51471863,7.5 7.5,9.51471863 7.5,12 C7.5,14.4852814 9.51471863,16.5 12,16.5 Z" id="Oval-5"></path>
                    <path d="M8.93084636,20.5270865 L15.9308464,20.5270865 L15.9308464,57.8872771 C15.9308464,64.7908365 21.527287,70.3872771 28.4308464,70.3872771 L40.5639359,70.3872771 L40.5639359,77.3872771 L28.4308464,77.3872771 C17.6612937,77.3872771 8.93084636,68.6568298 8.93084636,57.8872771 L8.93084636,20.5270865 Z" id="Path-9"></path>
                    <path d="M44.2,70.4 L44.2,77.6 L49,74 L44.2,70.4 Z M40,86 L40,62 L56,74 L40,86 Z" id="Path-10" stroke="#979797" stroke-width="2"></path>
                </g>
            </g>
        </g>
    </g>
</svg>